<svg width="37" height="32" viewBox="0 0 37 32" fill="none" xmlns="http://www.w3.org/2000/svg">
<path d="M34.1715 0H2.18615C0.983035 0 0 0.983036 0 2.18615V29.8138C0 31.017 0.983035 32 2.18615 32H34.1715C35.3746 32 36.3576 31.017 36.3576 29.8138V2.18615C36.3576 0.983036 35.3746 0 34.1715 0ZM28.7134 1.45254C29.5057 1.45254 30.166 2.11279 30.166 2.90509C30.166 3.71206 29.5057 4.35763 28.7134 4.35763C27.9211 4.35763 27.2609 3.69739 27.2609 2.90509C27.2609 2.11279 27.9211 1.45254 28.7134 1.45254ZM24.7226 1.45254C25.5149 1.45254 26.1751 2.11279 26.1751 2.90509C26.1751 3.71206 25.5149 4.35763 24.7226 4.35763C23.9303 4.35763 23.2701 3.69739 23.2701 2.90509C23.2701 2.11279 23.9156 1.45254 24.7226 1.45254ZM34.1715 30.0633H2.18615V5.81018H34.1715V30.0633ZM32.7189 4.35763C31.9266 4.35763 31.2664 3.69739 31.2664 2.90509C31.2664 2.11279 31.9266 1.45254 32.7189 1.45254C33.5112 1.45254 34.1715 2.11279 34.1715 2.90509C34.1715 3.71206 33.5112 4.35763 32.7189 4.35763ZM13.4837 8.06969H24.6492V10.1825H13.4837V8.06969ZM17.8854 12.8968H32.0147V14.995H17.8854V12.8968ZM17.8854 17.0931H32.0147V19.1912H17.8854V17.0931ZM17.8854 21.348H32.0147V23.4461H17.8854V21.348ZM4.18157 25.5442H32.0293V27.6424H4.18157V25.5442ZM4.18157 12.8968H14.1293V23.2701H4.18157V12.8968Z" fill="url(#paint0_linear_167_374)"/>
<defs>
<linearGradient id="paint0_linear_167_374" x1="18.1788" y1="0" x2="18.1788" y2="32" gradientUnits="userSpaceOnUse">
<stop stop-color="#DAB785"/>
<stop offset="1" stop-color="#E1C59D"/>
</linearGradient>
</defs>
</svg>
